<?xml version="1.0" encoding="utf-8"?><svg xmlns="http://www.w3.org/2000/svg" viewBox="0 0 1000 1000"><path d="M500,16A484.13,484.13,0,0,1,688.39,946,484.13,484.13,0,0,1,311.61,54,480.84,480.84,0,0,1,500,16m0-16C223.86,0,0,223.86,0,500s223.86,500,500,500,500-223.86,500-500S776.14,0,500,0Z" fill="#d9f99d"/><path d="M500,75.15A425,425,0,0,1,665.36,891.48a425,425,0,0,1-330.72-783A422.25,422.25,0,0,1,500,75.15m0-32.51C247.4,42.64,42.64,247.4,42.64,500S247.4,957.36,500,957.36,957.36,752.6,957.36,500,752.6,42.64,500,42.64Z" fill="#a3e635"/><path d="M500,185a313.86,313.86,0,1,1-122.59,24.73A312.92,312.92,0,0,1,500,185m0-60c-207.11,0-375,167.89-375,375S292.89,875,500,875,875,707.11,875,500,707.11,125,500,125Z" fill="#65a30d"/><path d="M500,338.59a161.42,161.42,0,1,1-114.13,47.28A160.33,160.33,0,0,1,500,338.59m0-112.11c-151.06,0-273.52,122.46-273.52,273.52S348.94,773.52,500,773.52,773.52,651.06,773.52,500,651.06,226.48,500,226.48Z"/></svg>