<?xml version="1.0" encoding="utf-8"?><svg xmlns="http://www.w3.org/2000/svg" viewBox="0 0 1000 446.32"><path d="M203.36,5.28a159.83,159.83,0,0,1,62.19,307A159.78,159.78,0,0,1,90.38,52.08a159.32,159.32,0,0,1,113-46.8m0-5.28A165.07,165.07,0,1,0,368.43,165.07,165.07,165.07,0,0,0,203.36,0Z" fill="#d9f99d"/><path d="M203.36 24.81a140.3 140.3 0 1 1-54.59 11.02 139.36 139.36 0 0 1 54.59-11m0-10.73a151 151 0 1 0 151 151 151 151 0 0 0-151-151z" fill="#a3e635"/><path d="M203.36,61.07a103.66,103.66,0,1,1-40.47,8.17,103.23,103.23,0,0,1,40.47-8.17m0-19.8a123.8,123.8,0,1,0,123.8,123.8,123.8,123.8,0,0,0-123.8-123.8Z" fill="#65a30d"/><path d="M982.93 380.21a62.92 62.92 0 0 0-13.7-6.49q-7.22-2.4-13.7-4.09a48.87 48.87 0 0 1-10.53-3.84c-2.73-1.44-4.09-3.37-4.09-5.77a5.68 5.68 0 0 1 3.13-5.17q3.12-1.8 9.38-1.8a37 37 0 0 1 13.34 2.64 31.07 31.07 0 0 1 12.38 9.14l20.86-21.16a49.43 49.43 0 0 0-20.55-15.26 71.89 71.89 0 0 0-27.53-5.17q-14.17 0-24.76 4.81a39 39 0 0 0-16.34 13.1 33.42 33.42 0 0 0-5.77 19.59q0 10.58 4.08 17.43a30.14 30.14 0 0 0 10.58 10.7 61.62 61.62 0 0 0 13.7 6q7.22 2.17 13.7 4a51.53 51.53 0 0 1 10.7 4.09c2.8 1.52 4.21 3.72 4.21 6.61 0 2.25-1.17 4-3.49 5.29s-5.65 1.92-10 1.92a42.62 42.62 0 0 1-17.31-3.48 40.69 40.69 0 0 1-13.7-9.74l-20.92 21.15a61.51 61.51 0 0 0 14.55 11.42 74.92 74.92 0 0 0 18.51 7.57 78.57 78.57 0 0 0 20.34 2.62q21.87 0 34.74-10.1 12.87-10.1 12.86-27.16 0-11.06-4.09-17.91a32.23 32.23 0 0 0-10.58-10.94zm-121.63-48.8Q848.07 324 830.77 324a64.32 64.32 0 0 0-32 7.93 61.86 61.86 0 0 0-22.36 84.62 58.35 58.35 0 0 0 23.2 21.76q14.79 7.8 33.77 7.81a70.19 70.19 0 0 0 26.96-5.12 54.58 54.58 0 0 0 20.91-15.14l-20.19-20.2a34.25 34.25 0 0 1-12.26 9 39.18 39.18 0 0 1-15.63 3 31.83 31.83 0 0 1-16.22-4 26.7 26.7 0 0 1-10.58-11.3 31.55 31.55 0 0 1-2-5.21L888 397a79.37 79.37 0 0 0 1.3-8 64.6 64.6 0 0 0 .36-6.61q0-17.07-7.57-30.29a54.27 54.27 0 0 0-20.79-20.69zM816 356.05a27.84 27.84 0 0 1 15-4 25.87 25.87 0 0 1 13.82 3.48 21.72 21.72 0 0 1 8.54 10.1 33.45 33.45 0 0 1 1.94 6.18l-51 .14a31.28 31.28 0 0 1 1.81-4.76 26.28 26.28 0 0 1 9.89-11.14zm-80.42-77.76H698.8v48.32h-26.44v31.25h26.44v85.57h36.78v-85.57h26.44v-31.25h-26.44v-48.32zM619.47 326.6h36.78v116.83h-36.78zm18.71-56.05a19.17 19.17 0 0 0-14.3 5.77 21.07 21.07 0 0 0 0 28.72 19 19 0 0 0 14.3 5.89 18.6 18.6 0 0 0 14.19-5.93 21.41 21.41 0 0 0 0-28.72 18.79 18.79 0 0 0-14.19-5.73zm-92.26 84.3q3.12-1.8 9.37-1.8a36.93 36.93 0 0 1 13.34 2.64 31 31 0 0 1 12.37 9.14l20.92-21.16a49.4 49.4 0 0 0-20.56-15.26 71.84 71.84 0 0 0-27.52-5.17q-14.19 0-24.76 4.81a39.05 39.05 0 0 0-16.35 13.1 33.49 33.49 0 0 0-5.73 19.59q0 10.58 4.09 17.43a30.06 30.06 0 0 0 10.58 10.7 61.42 61.42 0 0 0 13.7 6q7.21 2.17 13.7 4a51.75 51.75 0 0 1 10.7 4.09c2.8 1.52 4.21 3.72 4.21 6.61 0 2.25-1.17 4-3.49 5.29s-5.65 1.92-10 1.92a42.54 42.54 0 0 1-17.3-3.48 40.83 40.83 0 0 1-13.71-9.74l-20.91 21.15a61.45 61.45 0 0 0 14.53 11.39 75.24 75.24 0 0 0 18.51 7.57 78.64 78.64 0 0 0 20.32 2.65q21.87 0 34.73-10.1 12.86-10.1 12.86-27.16 0-11.06-4.08-17.91a32.23 32.23 0 0 0-10.58-10.94 63.14 63.14 0 0 0-13.7-6.49q-7.21-2.4-13.7-4.09a48.87 48.87 0 0 1-10.58-3.84c-2.73-1.44-4.09-3.37-4.09-5.77a5.67 5.67 0 0 1 3.13-5.17zm-82.81-22.72a55 55 0 0 0-29.45-7.93 50.93 50.93 0 0 0-21.66 4.57 45.55 45.55 0 0 0-8.89 5.39v-65.25h-36.76v174.52h36.3v-8.65a47.32 47.32 0 0 0 31 11.06 55 55 0 0 0 29.45-7.93 56 56 0 0 0 20.19-21.64q7.33-13.71 7.33-31.25 0-17.54-7.33-31.25a55.91 55.91 0 0 0-20.18-21.64zM450 399.2a25 25 0 0 1-22.84 13.46 26.16 26.16 0 0 1-13.58-3.48 24.55 24.55 0 0 1-9.26-9.74A30 30 0 0 1 401 385a30.89 30.89 0 0 1 3.24-14.42 23.63 23.63 0 0 1 9.26-9.74 26.81 26.81 0 0 1 13.7-3.48 26.19 26.19 0 0 1 13.58 3.48 24.69 24.69 0 0 1 9.22 9.76 30 30 0 0 1 3.37 14.4 29.44 29.44 0 0 1-3.37 14.2zm-129.8-67.79Q307 324 289.67 324a64.32 64.32 0 0 0-32 7.93 61.86 61.86 0 0 0-22.36 84.62 58.35 58.35 0 0 0 23.2 21.76q14.79 7.8 33.77 7.81a70.19 70.19 0 0 0 26.96-5.12 54.58 54.58 0 0 0 20.91-15.14L320 405.69a34.25 34.25 0 0 1-12.26 9 39.18 39.18 0 0 1-15.63 3 31.85 31.85 0 0 1-16.22-4 26.7 26.7 0 0 1-10.58-11.3 31.55 31.55 0 0 1-2-5.21l83.66-.2a79.37 79.37 0 0 0 1.23-7.98 64.73 64.73 0 0 0 .37-6.61q0-17.07-7.58-30.29a54.21 54.21 0 0 0-20.79-20.69zm-45.31 24.64a27.84 27.84 0 0 1 15-4 25.85 25.85 0 0 1 13.82 3.48 21.72 21.72 0 0 1 8.54 10.1 33.45 33.45 0 0 1 1.94 6.18l-51 .14a31.28 31.28 0 0 1 1.81-4.76 26.28 26.28 0 0 1 9.89-11.14zm-79.45-82.33L163.05 380.3l-31.8-106.58h-29.56L69.98 379.98 37.5 273.72H0l54.57 169.71h29.57l32.21-107.3 32.21 107.3h29.57l54.57-169.71h-37.26zm669.1-188.94h-36.78v48.31h-26.44v31.25h26.44v85.58h36.78v-85.58h26.45v-31.25h-26.45V84.78zM705.05 246q12.38 6.6 28.48 6.61 16.1.01 28.37-6.61a49.16 49.16 0 0 0 19.23-18.27q7-11.67 7-27.05v-67.59h-36.81v67.31q0 9.14-4.81 14.31-4.81 5.17-13 5.16a19.12 19.12 0 0 1-9.85-2.4 15.09 15.09 0 0 1-6.13-6.73 23.93 23.93 0 0 1-2-10.34v-67.31h-36.8v67.79q0 15.15 7 26.81A48.82 48.82 0 0 0 705.05 246zm-69.71-107.38q-12.87-7.94-29.45-7.93a48.6 48.6 0 0 0-21.63 4.81 45.38 45.38 0 0 0-8.9 5.66v-8.07h-36.78V299.2h36.3V242a44.65 44.65 0 0 0 9.38 5.79 50.88 50.88 0 0 0 21.63 4.57q16.59 0 29.45-7.94a56 56 0 0 0 20.19-21.63q7.34-13.71 7.33-31.25-.01-17.54-7.33-31.25a55.91 55.91 0 0 0-20.19-21.67zm-13.1 67.07a25.56 25.56 0 0 1-9.26 9.86 26 26 0 0 1-13.82 3.6 25.66 25.66 0 0 1-13.46-3.6 24.43 24.43 0 0 1-9.26-9.86 30.33 30.33 0 0 1-3.24-14.18 30 30 0 0 1 3.36-14.43 24.66 24.66 0 0 1 9.26-9.73 28.17 28.17 0 0 1 27.16 0 24.66 24.66 0 0 1 9.26 9.73 30 30 0 0 1 3.36 14.43 29.44 29.44 0 0 1-3.36 14.18zm-99.76-41.35v-31.25h-26.44V84.78h-36.78v48.31h-26.45v31.25h26.45v85.58h36.78v-85.58h26.44zm-109.85 63.35q7-11.67 7-27.05v-67.55h-36.81v67.31q0 9.14-4.81 14.31-4.81 5.17-13 5.16a19.16 19.16 0 0 1-9.86-2.4 15.14 15.14 0 0 1-6.13-6.73 24.08 24.08 0 0 1-2-10.34v-67.31h-36.8v67.79q0 15.15 7 26.81A49 49 0 0 0 336.54 246q12.39 6.6 28.49 6.61 16.1.01 28.37-6.61a49.16 49.16 0 0 0 19.23-18.31zM203.36 111.78a53.28 53.28 0 1 1-37.68 15.61 52.92 52.92 0 0 1 37.68-15.61m0-37a90.3 90.3 0 1 0 90.3 90.3 90.3 90.3 0 0 0-90.3-90.3z" fill="#fff"/></svg>